# xmcd
#
# Track frame offsets: 
#        150
#        16953
#        34545
#        50735
#        66188
#        83881
#        100451
#        117230
#        132920
#        152537
#        170981
#        187652
#        204919
#        221009
#        238742
#        260706
#        274324
#        290944
#        308813
#        325481
#
# Disc length: 4562 seconds
#
# Revision: 0
# Processed by: cddbd v1.5.1PL0 Copyright (c) Steve Scherf et al.
# Submitted via: ExactAudioCopy v0.95b2
#
DISCID=3211d014
DTITLE=Backstreet Boys - Never Gone
DYEAR=2005
DGENRE=Pop
TTITLE0=Climbing the walls
TTITLE1=Poster girl
TTITLE2=Beautiful woman
TTITLE3=Forces of nature
TTITLE4=Incomplete
TTITLE5=The unloved
TTITLE6=Neveê gone
TTITLE7=Love is
TTITLE8=Over her
TTITLE9=Color my world
TTITLE10=Memories
TTITLE11=Everybody
TTITLE12=Everyone
TTITLE13=Get Down (You're the One for Me)
TTITLE14=If You Want It to Be Good Girl
TTITLE15=It's Gotta Be You
TTITLE16=More Than That
TTITLE17=Quit Playing Games (With My Heart)
TTITLE18=Show Me The Meaning of Being Lonely
TTITLE19=That's The Way Meaning Of Being
EXTD=
EXTT0=
EXTT1=
EXTT2=
EXTT3=
EXTT4=
EXTT5=
EXTT6=
EXTT7=
EXTT8=
EXTT9=
EXTT10=
EXTT11=
EXTT12=
EXTT13=
EXTT14=
EXTT15=
EXTT16=
EXTT17=
EXTT18=
EXTT19=
PLAYORDER=
